<?xml version="1.0" encoding="UTF-8" standalone="no"?>
<svg
   xmlns:dc="http://purl.org/dc/elements/1.1/"
   xmlns:cc="http://creativecommons.org/ns#"
   xmlns:rdf="http://www.w3.org/1999/02/22-rdf-syntax-ns#"
   xmlns:svg="http://www.w3.org/2000/svg"
   xmlns="http://www.w3.org/2000/svg"
   xmlns:sodipodi="http://sodipodi.sourceforge.net/DTD/sodipodi-0.dtd"
   xmlns:inkscape="http://www.inkscape.org/namespaces/inkscape"
   width="210mm"
   height="297mm"
   viewBox="0 0 210 297"
   version="1.1"
   id="svg2025"
   inkscape:version="1.0.1 (3bc2e813f5, 2020-09-07)"
   sodipodi:docname="Fuss1.svg">
  <defs
     id="defs2019">
    <inkscape:path-effect
       effect="powerstroke"
       id="path-effect3202"
       is_visible="true"
       lpeversion="1"
       offset_points="0,0.1"
       sort_points="true"
       interpolator_type="CubicBezierJohan"
       interpolator_beta="0.2"
       start_linecap_type="zerowidth"
       linejoin_type="extrp_arc"
       miter_limit="4"
       scale_width="1"
       end_linecap_type="zerowidth" />
    <inkscape:path-effect
       effect="bspline"
       id="path-effect3200"
       is_visible="true"
       lpeversion="1"
       weight="33.333333"
       steps="2"
       helper_size="0"
       apply_no_weight="true"
       apply_with_weight="true"
       only_selected="false" />
    <inkscape:path-effect
       effect="powerstroke"
       id="path-effect3196"
       is_visible="true"
       lpeversion="1"
       offset_points="0,0.1"
       sort_points="true"
       interpolator_type="CubicBezierJohan"
       interpolator_beta="0.2"
       start_linecap_type="zerowidth"
       linejoin_type="extrp_arc"
       miter_limit="4"
       scale_width="1"
       end_linecap_type="zerowidth" />
    <inkscape:path-effect
       effect="simplify"
       id="path-effect3194"
       is_visible="true"
       lpeversion="1"
       steps="1"
       threshold="0.000408163"
       smooth_angles="360"
       helper_size="0"
       simplify_individual_paths="false"
       simplify_just_coalesce="false" />
  </defs>
  <sodipodi:namedview
     id="base"
     pagecolor="#ffffff"
     bordercolor="#666666"
     borderopacity="1.0"
     inkscape:pageopacity="0.0"
     inkscape:pageshadow="2"
     inkscape:zoom="0.47300612"
     inkscape:cx="411.75334"
     inkscape:cy="543.10541"
     inkscape:document-units="mm"
     inkscape:current-layer="layer2"
     inkscape:document-rotation="0"
     showgrid="false"
     inkscape:window-width="1920"
     inkscape:window-height="1017"
     inkscape:window-x="-8"
     inkscape:window-y="-8"
     inkscape:window-maximized="1"
     inkscape:snap-global="false"
     showguides="false"
     inkscape:guide-bbox="true">
    <sodipodi:guide
       position="41.204828,150.07773"
       orientation="0,-1"
       id="guide3232" />
    <sodipodi:guide
       position="101.87445,156.84397"
       orientation="1,0"
       id="guide3234" />
    <sodipodi:guide
       position="124.86312,236.8576"
       orientation="1,0"
       id="guide3236" />
  </sodipodi:namedview>
  <metadata
     id="metadata2022">
    <rdf:RDF>
      <cc:Work
         rdf:about="">
        <dc:format>image/svg+xml</dc:format>
        <dc:type
           rdf:resource="http://purl.org/dc/dcmitype/StillImage" />
        <dc:title></dc:title>
      </cc:Work>
    </rdf:RDF>
  </metadata>
  <g
     inkscape:label="Ebene 1"
     inkscape:groupmode="layer"
     id="layer1"
     style="display:inline;opacity:0.133028" />
  <g
     inkscape:groupmode="layer"
     id="layer2"
     inkscape:label="Zeichnung"
     style="display:inline">
    <g
       id="g3294"
       transform="translate(-6.7123868,-73.836255)">
      <path
         style="display:inline;fill:none;stroke:#000000;stroke-width:0.1;stroke-linejoin:bevel;stroke-miterlimit:4;stroke-dasharray:none;paint-order:markers stroke fill"
         d="m 69.984294,147.12834 c -0.13848,-2.27085 0.1117,-4.73604 0.38126,-7.21092 0.35835,-2.42672 0.72375,-4.85203 1.42131,-7.21091 l 2.02807,-7.77428 2.25342,-8.11228 0.56335,-2.14074 c 0.25618,-1.2428 0.0253,-2.43148 -0.33801,-3.60546 -0.55547,-1.6202 -1.52593,-2.96375 -2.7041,-4.16882 -1.16517,-0.90045 -2.34767,-1.78358 -4.05614,-2.14074 -1.45134,-0.36854 -3.5672,-0.5936 -4.81052,-0.26875 -1.41187,0.25777 -1.59639,0.4109 -2.51307,0.60677 -0.94583,0.23578 -1.65063,0.71258 -2.32283,1.22197 -1.09908,0.77887 -2.02229,0.026 -2.18399,-0.20794 -0.38682,-0.94083 -0.94819,-1.61982 -1.46472,-2.36608 -1.0133,-1.09161 -2.15908,-1.74159 -3.38012,-2.14074 -1.62891,-0.51749 -2.45171,-0.4304 -3.26745,-0.33802 -1.4169,0.0348 -2.58286,0.66738 -3.5188,1.11809 -0.95668,0.61492 -1.77354,1.36964 -2.45274,2.26203 l -0.78869,1.36945 c -0.71435,0.54678 -1.46975,0.51888 -2.25341,0.0953 -0.9574,-0.71018 -1.94691,-1.32402 -3.04211,-1.6208 -1.57813,-0.36705 -3.11057,-0.36849 -4.6195,-0.18193 -1.36346,0.40607 -2.54539,1.02393 -3.49279,1.9154 -1.01448,0.7058 -1.53058,1.87711 -2.2274,2.77351 -0.33453,1.07343 -0.70504,1.96677 -0.70203,2.97269 l 4.2755,52.83139 c 0.10913,0.84645 0.26101,1.5219 0.43943,2.09123 0.77923,2.28138 1.75128,4.30567 2.94667,6.03218 1.62379,2.2662 3.43763,4.00027 5.40819,5.29552 1.92862,1.08988 3.88253,2.13548 6.08421,2.7475 2.59142,0.57413 5.18285,0.778 7.77427,0.51995 2.46723,-0.17576 4.80849,-1.14163 6.90754,-2.07148 2.08502,-1.08676 4.10329,-2.67418 6.04958,-4.80143 1.00676,-1.28188 1.99182,-2.80239 2.92944,-4.84483 0.46728,-1.45379 0.92116,-2.42069 1.23076,-5.00954 0.16205,-1.83713 0.23359,-3.73877 0.052,-5.91952 -0.20161,-2.85406 -0.44519,-4.8858 -0.5632,-7.31496 z"
         id="path3204-2"
         sodipodi:nodetypes="cccccccccccccccccccccccccccccccccccccc" />
      <ellipse
         style="display:inline;opacity:1;fill:none;stroke:#000000;stroke-width:0.100154;stroke-linejoin:bevel;stroke-miterlimit:4;stroke-dasharray:none;paint-order:markers stroke fill"
         id="path3209-6"
         cx="-111.34164"
         cy="84.806297"
         rx="2.2393084"
         ry="7.99649"
         transform="matrix(-0.9241379,-0.38205909,-0.45334952,0.89133283,0,0)" />
      <ellipse
         style="display:inline;opacity:1;fill:none;stroke:#000000;stroke-width:0.100154;stroke-linejoin:bevel;stroke-miterlimit:4;stroke-dasharray:none;paint-order:markers stroke fill"
         id="path3209-5-8"
         cx="-48.235058"
         cy="121.33852"
         rx="2.2393084"
         ry="7.99649"
         transform="matrix(-0.99526507,0.09719798,0.01885431,0.99982224,0,0)" />
      <ellipse
         style="display:inline;opacity:1;fill:none;stroke:#000000;stroke-width:0.100154;stroke-linejoin:bevel;stroke-miterlimit:4;stroke-dasharray:none;paint-order:markers stroke fill"
         id="path3209-3-2"
         cx="8.8257246"
         cy="121.64043"
         rx="2.2393084"
         ry="7.99649"
         transform="matrix(-0.89811646,0.43975769,0.36797715,0.92983483,0,0)" />
      <ellipse
         style="display:inline;opacity:1;fill:none;stroke:#000000;stroke-width:0.1;stroke-linejoin:bevel;stroke-miterlimit:4;stroke-dasharray:none;paint-order:markers stroke fill"
         id="path3240-3"
         cx="-38.795284"
         cy="147.36955"
         rx="0.89148885"
         ry="0.94392937"
         transform="scale(-1,1)" />
      <ellipse
         style="display:inline;opacity:1;fill:none;stroke:#000000;stroke-width:0.1;stroke-linejoin:bevel;stroke-miterlimit:4;stroke-dasharray:none;paint-order:markers stroke fill"
         id="path3240-8-3"
         cx="-61.886593"
         cy="147.33459"
         rx="0.89148885"
         ry="0.94392937"
         transform="scale(-1,1)" />
    </g>
    <g
       id="g3302"
       transform="translate(-6.7123868,-73.405045)">
      <path
         style="fill:none;stroke:#000000;stroke-width:0.1;stroke-linejoin:bevel;stroke-miterlimit:4;stroke-dasharray:none;paint-order:markers stroke fill"
         d="m 93.741787,146.69713 c 0.138483,-2.27085 -0.111703,-4.73604 -0.381261,-7.21092 -0.358349,-2.42672 -0.723752,-4.85203 -1.421309,-7.21091 l -2.028071,-7.77428 -2.253413,-8.11228 -0.563354,-2.14074 c -0.256183,-1.2428 -0.02526,-2.43148 0.338013,-3.60546 0.555469,-1.6202 1.525929,-2.96375 2.704095,-4.16882 1.165176,-0.90045 2.347674,-1.78358 4.056142,-2.14074 1.451341,-0.36854 3.567199,-0.5936 4.810522,-0.26875 1.411869,0.25777 1.596389,0.4109 2.513069,0.60677 0.94583,0.23578 1.65063,0.71258 2.32283,1.22197 1.09908,0.77887 2.02229,0.026 2.18399,-0.20794 0.38682,-0.94083 0.94819,-1.61982 1.46472,-2.36608 1.0133,-1.09161 2.15908,-1.74159 3.38012,-2.14074 1.62891,-0.51749 2.45171,-0.4304 3.26745,-0.33802 1.4169,0.0348 2.58286,0.66738 3.5188,1.11809 0.95668,0.61492 1.77354,1.36964 2.45274,2.26203 l 0.78869,1.36945 c 0.71435,0.54678 1.46975,0.51888 2.25341,0.0953 0.9574,-0.71018 1.94691,-1.32402 3.04211,-1.6208 1.57813,-0.36705 3.11057,-0.36849 4.6195,-0.18193 1.36346,0.40607 2.54539,1.02393 3.49279,1.9154 1.01448,0.7058 1.53058,1.87711 2.2274,2.77351 0.33453,1.07343 0.70504,1.96677 0.70203,2.97269 l -4.2755,52.83139 c -0.10913,0.84645 -0.26101,1.5219 -0.43943,2.09123 -0.77923,2.28138 -1.75128,4.30567 -2.94667,6.03218 -1.62379,2.2662 -3.43763,4.00027 -5.40819,5.29552 -1.92862,1.08988 -3.88253,2.13548 -6.08421,2.7475 -2.59142,0.57413 -5.18285,0.778 -7.77427,0.51995 -2.46723,-0.17576 -4.80849,-1.14163 -6.90754,-2.07148 -2.08502,-1.08676 -4.103292,-2.67418 -6.049584,-4.80143 -1.006758,-1.28188 -1.991822,-2.80239 -2.929437,-4.84483 -0.467281,-1.45379 -0.921161,-2.42069 -1.230757,-5.00954 -0.162057,-1.83713 -0.233589,-3.73877 -0.05203,-5.91952 0.201604,-2.85406 0.445184,-4.8858 0.563193,-7.31496 z"
         id="path3204"
         sodipodi:nodetypes="cccccccccccccccccccccccccccccccccccccc" />
      <ellipse
         style="opacity:1;fill:none;stroke:#000000;stroke-width:0.100154;stroke-linejoin:bevel;stroke-miterlimit:4;stroke-dasharray:none;paint-order:markers stroke fill"
         id="path3209"
         cx="35.239643"
         cy="147.15282"
         rx="2.2393084"
         ry="7.99649"
         transform="matrix(0.9241379,-0.38205909,0.45334951,0.89133284,0,0)" />
      <ellipse
         style="opacity:1;fill:none;stroke:#000000;stroke-width:0.100154;stroke-linejoin:bevel;stroke-miterlimit:4;stroke-dasharray:none;paint-order:markers stroke fill"
         id="path3209-5"
         cx="115.9594"
         cy="104.94504"
         rx="2.2393084"
         ry="7.99649"
         transform="matrix(0.99526507,0.09719798,-0.01885431,0.99982224,0,0)" />
      <ellipse
         style="opacity:1;fill:none;stroke:#000000;stroke-width:0.100154;stroke-linejoin:bevel;stroke-miterlimit:4;stroke-dasharray:none;paint-order:markers stroke fill"
         id="path3209-3"
         cx="161.375"
         cy="49.029778"
         rx="2.2393084"
         ry="7.99649"
         transform="matrix(0.89811646,0.43975768,-0.36797716,0.92983483,0,0)" />
      <ellipse
         style="display:inline;opacity:1;fill:none;stroke:#000000;stroke-width:0.1;stroke-linejoin:bevel;stroke-miterlimit:4;stroke-dasharray:none;paint-order:markers stroke fill"
         id="path3240"
         cx="124.9308"
         cy="146.93834"
         rx="0.89148885"
         ry="0.94392937" />
      <ellipse
         style="display:inline;opacity:1;fill:none;stroke:#000000;stroke-width:0.1;stroke-linejoin:bevel;stroke-miterlimit:4;stroke-dasharray:none;paint-order:markers stroke fill"
         id="path3240-8"
         cx="101.83949"
         cy="146.90338"
         rx="0.89148885"
         ry="0.94392937" />
    </g>
  </g>
</svg>
